<svg width="17" height="17" viewBox="0 0 17 17" fill="none" xmlns="http://www.w3.org/2000/svg">
<path fill-rule="evenodd" clip-rule="evenodd" d="M8.5 0C7.32544 0 6.375 0.950439 6.375 2.125C6.375 3.29956 7.32544 4.25 8.5 4.25C9.67456 4.25 10.625 3.29956 10.625 2.125C10.625 0.950439 9.67456 0 8.5 0ZM8.5 6.375C7.32544 6.375 6.375 7.32544 6.375 8.5C6.375 9.67456 7.32544 10.625 8.5 10.625C9.67456 10.625 10.625 9.67456 10.625 8.5C10.625 7.32544 9.67456 6.375 8.5 6.375ZM8.5 12.75C7.32544 12.75 6.375 13.7004 6.375 14.875C6.375 16.0496 7.32544 17 8.5 17C9.67456 17 10.625 16.0496 10.625 14.875C10.625 13.7004 9.67456 12.75 8.5 12.75Z" fill="#616C7C"/>
</svg>
