<svg width="25" height="25" viewBox="0 0 25 25" fill="none" xmlns="http://www.w3.org/2000/svg">
<path d="M18.5916 8.5C18.5916 6.9087 17.9595 5.38258 16.8343 4.25736C15.709 3.13214 14.1829 2.5 12.5916 2.5C11.0003 2.5 9.47419 3.13214 8.34897 4.25736C7.22376 5.38258 6.59161 6.9087 6.59161 8.5C6.59161 15.5 3.59161 17.5 3.59161 17.5H21.5916C21.5916 17.5 18.5916 15.5 18.5916 8.5Z" stroke="#1A499F" stroke-width="2" stroke-linecap="round" stroke-linejoin="round"/>
<path d="M14.3216 21.5C14.1458 21.8031 13.8935 22.0547 13.5899 22.2295C13.2862 22.4044 12.942 22.4965 12.5916 22.4965C12.2413 22.4965 11.897 22.4044 11.5934 22.2295C11.2898 22.0547 11.0374 21.8031 10.8616 21.5" stroke="#1A499F" stroke-width="2" stroke-linecap="round" stroke-linejoin="round"/>
</svg>
