<svg width="29" height="29" viewBox="0 0 29 29" fill="none" xmlns="http://www.w3.org/2000/svg">
<path d="M21.9986 9.78277C21.9986 7.92625 21.2611 6.14577 19.9484 4.83302C18.6356 3.52026 16.8551 2.78277 14.9986 2.78277C13.1421 2.78277 11.3616 3.52026 10.0489 4.83302C8.73612 6.14577 7.99863 7.92625 7.99863 9.78277C7.99863 17.9494 4.49863 20.2828 4.49863 20.2828H25.4986C25.4986 20.2828 21.9986 17.9494 21.9986 9.78277Z" stroke="white" stroke-width="2.33333" stroke-linecap="round" stroke-linejoin="round"/>
<path d="M17.0164 24.9494C16.8113 25.303 16.5169 25.5965 16.1627 25.8006C15.8085 26.0046 15.4069 26.112 14.9981 26.112C14.5893 26.112 14.1877 26.0046 13.8335 25.8006C13.4793 25.5965 13.1849 25.303 12.9798 24.9494" stroke="white" stroke-width="2.33333" stroke-linecap="round" stroke-linejoin="round"/>
</svg>
