<svg width="28" height="28" viewBox="0 0 28 28" fill="none" xmlns="http://www.w3.org/2000/svg">
<path fill-rule="evenodd" clip-rule="evenodd" d="M14.0254 17.3253C15.8894 17.3253 17.4004 15.8143 17.4004 13.9503C17.4004 12.0864 15.8894 10.5753 14.0254 10.5753C12.1615 10.5753 10.6504 12.0864 10.6504 13.9503C10.6504 15.8143 12.1615 17.3253 14.0254 17.3253Z" stroke="white" stroke-width="2.29375" stroke-linecap="round" stroke-linejoin="round"/>
<path fill-rule="evenodd" clip-rule="evenodd" d="M22.3526 17.3238C22.0462 18.018 22.1933 18.8288 22.7239 19.3713L22.7914 19.4388C23.2139 19.8608 23.4513 20.4335 23.4513 21.0307C23.4513 21.6278 23.2139 22.2005 22.7914 22.6225C22.3694 23.045 21.7967 23.2824 21.1995 23.2824C20.6023 23.2824 20.0297 23.045 19.6076 22.6225L19.5401 22.555C18.9977 22.0244 18.1869 21.8774 17.4926 22.1838C16.8126 22.4752 16.3706 23.1427 16.3676 23.8825V24.0738C16.3676 25.3164 15.3603 26.3238 14.1176 26.3238C12.875 26.3238 11.8676 25.3164 11.8676 24.0738V23.9725C11.8498 23.2105 11.368 22.5369 10.6526 22.2738C9.95841 21.9674 9.14759 22.1144 8.60513 22.645L8.53763 22.7125C8.1156 23.135 7.54293 23.3724 6.94576 23.3724C6.34859 23.3724 5.77591 23.135 5.35388 22.7125C4.93138 22.2905 4.69399 21.7178 4.69399 21.1207C4.69399 20.5235 4.93138 19.9508 5.35388 19.5288L5.42138 19.4613C5.95201 18.9188 6.09902 18.108 5.79263 17.4138C5.50118 16.7337 4.83373 16.2917 4.09388 16.2888H3.90263C2.65999 16.2888 1.65263 15.2814 1.65263 14.0388C1.65263 12.7961 2.65999 11.7888 3.90263 11.7888H4.00388C4.76588 11.771 5.43953 11.2891 5.70263 10.5738C6.00902 9.87955 5.86201 9.06874 5.33138 8.52628L5.26388 8.45878C4.84139 8.03675 4.60399 7.46407 4.60399 6.8669C4.60399 6.26973 4.84139 5.69705 5.26388 5.27503C5.68591 4.85253 6.25859 4.61513 6.85576 4.61513C7.45293 4.61513 8.0256 4.85253 8.44763 5.27503L8.51513 5.34253C9.05759 5.87315 9.86841 6.02017 10.5626 5.71378H10.6526C11.3327 5.42232 11.7747 4.75487 11.7776 4.01503V3.82378C11.7776 2.58114 12.785 1.57378 14.0276 1.57378C15.2703 1.57378 16.2776 2.58114 16.2776 3.82378V3.92503C16.2806 4.66487 16.7226 5.33232 17.4026 5.62378C18.0969 5.93017 18.9077 5.78315 19.4501 5.25253L19.5176 5.18503C19.9397 4.76253 20.5123 4.52513 21.1095 4.52513C21.7067 4.52513 22.2794 4.76253 22.7014 5.18503C23.1239 5.60705 23.3613 6.17973 23.3613 6.7769C23.3613 7.37407 23.1239 7.94675 22.7014 8.36878L22.6339 8.43628C22.1033 8.97874 21.9562 9.78955 22.2626 10.4838V10.5738C22.5541 11.2538 23.2215 11.6958 23.9614 11.6988H24.1526C25.3953 11.6988 26.4026 12.7061 26.4026 13.9488C26.4026 15.1914 25.3953 16.1988 24.1526 16.1988H24.0514C23.3115 16.2017 22.6441 16.6437 22.3526 17.3238Z" stroke="white" stroke-width="2.29375" stroke-linecap="round" stroke-linejoin="round"/>
</svg>
